<mxfile host="app.diagrams.net" modified="2021-08-19T11:03:54.775Z" agent="5.0 (Macintosh; Intel Mac OS X 10_15_7) AppleWebKit/537.36 (KHTML, like Gecko) Chrome/92.0.4515.131 Safari/537.36" etag="DoCzgLQs2_fgljM4Bw7D" version="14.9.7" type="github">
  <diagram id="z-LQbT5DIJsYQxyCbET5" name="Page-1">
    <mxGraphModel dx="1290" dy="703" grid="1" gridSize="10" guides="1" tooltips="1" connect="1" arrows="1" fold="1" page="1" pageScale="1" pageWidth="827" pageHeight="1169" math="0" shadow="0">
      <root>
        <mxCell id="0" />
        <mxCell id="1" parent="0" />
        <mxCell id="3pkGQoeZ3oAOKSy_i_JQ-14" value="" style="edgeStyle=orthogonalEdgeStyle;rounded=0;orthogonalLoop=1;jettySize=auto;entryX=0.5;entryY=0;entryDx=0;entryDy=0;strokeColor=#838383;dashed=1;" edge="1" parent="1" source="3pkGQoeZ3oAOKSy_i_JQ-15" target="3pkGQoeZ3oAOKSy_i_JQ-18">
          <mxGeometry relative="1" as="geometry" />
        </mxCell>
        <mxCell id="3pkGQoeZ3oAOKSy_i_JQ-16" value="" style="edgeStyle=orthogonalEdgeStyle;rounded=0;orthogonalLoop=1;jettySize=auto;entryX=0.5;entryY=0;entryDx=0;entryDy=0;strokeColor=#838383;dashed=1;" edge="1" parent="1" source="3pkGQoeZ3oAOKSy_i_JQ-18" target="3pkGQoeZ3oAOKSy_i_JQ-19">
          <mxGeometry relative="1" as="geometry" />
        </mxCell>
        <mxCell id="3pkGQoeZ3oAOKSy_i_JQ-17" value="" style="edgeStyle=orthogonalEdgeStyle;rounded=0;orthogonalLoop=1;jettySize=auto;entryX=0.5;entryY=0;entryDx=0;entryDy=0;strokeColor=#838383;dashed=1;" edge="1" parent="1" source="3pkGQoeZ3oAOKSy_i_JQ-18" target="3pkGQoeZ3oAOKSy_i_JQ-21">
          <mxGeometry relative="1" as="geometry" />
        </mxCell>
        <mxCell id="3pkGQoeZ3oAOKSy_i_JQ-18" value="Items&#xa;(FABActionCollection)" style="rounded=1;fontFamily=&quot;Segoe UI&quot;,&quot;Helvetica Neue&quot;,Helvetica,Arial,sans-serif;strokeWidth=3;arcSize=50;fontColor=#fff;fillColor=#FF7200;strokeColor=none;" vertex="1" parent="1">
          <mxGeometry x="327" y="180" width="179" height="60" as="geometry" />
        </mxCell>
        <mxCell id="3pkGQoeZ3oAOKSy_i_JQ-19" value="Action&#xa;(FABAction)" style="rounded=1;fontFamily=&quot;Segoe UI&quot;,&quot;Helvetica Neue&quot;,Helvetica,Arial,sans-serif;strokeWidth=3;arcSize=50;fontColor=#fff;fillColor=#FF7200;strokeColor=none;" vertex="1" parent="1">
          <mxGeometry x="119" y="280" width="179" height="60" as="geometry" />
        </mxCell>
        <mxCell id="3pkGQoeZ3oAOKSy_i_JQ-20" value="" style="edgeStyle=orthogonalEdgeStyle;rounded=0;orthogonalLoop=1;jettySize=auto;entryX=0.5;entryY=0;entryDx=0;entryDy=0;strokeColor=#838383;dashed=1;" edge="1" parent="1" source="3pkGQoeZ3oAOKSy_i_JQ-21" target="3pkGQoeZ3oAOKSy_i_JQ-23">
          <mxGeometry relative="1" as="geometry" />
        </mxCell>
        <mxCell id="3pkGQoeZ3oAOKSy_i_JQ-21" value="Action Group&#xa;(FABActionGroup)" style="rounded=1;fontFamily=&quot;Segoe UI&quot;,&quot;Helvetica Neue&quot;,Helvetica,Arial,sans-serif;strokeWidth=3;arcSize=50;fontColor=#fff;fillColor=#FF7200;strokeColor=none;" vertex="1" parent="1">
          <mxGeometry x="529" y="280" width="179" height="60" as="geometry" />
        </mxCell>
        <mxCell id="3pkGQoeZ3oAOKSy_i_JQ-22" value="" style="edgeStyle=orthogonalEdgeStyle;rounded=0;orthogonalLoop=1;jettySize=auto;entryX=0.5;entryY=0;entryDx=0;entryDy=0;strokeColor=#838383;dashed=1;" edge="1" parent="1" source="3pkGQoeZ3oAOKSy_i_JQ-23" target="3pkGQoeZ3oAOKSy_i_JQ-24">
          <mxGeometry relative="1" as="geometry" />
        </mxCell>
        <mxCell id="3pkGQoeZ3oAOKSy_i_JQ-23" value="Items&#xa;(FABActionItemCollection)" style="rounded=1;fontFamily=&quot;Segoe UI&quot;,&quot;Helvetica Neue&quot;,Helvetica,Arial,sans-serif;strokeWidth=3;arcSize=50;fontColor=#fff;fillColor=#FF7200;strokeColor=none;" vertex="1" parent="1">
          <mxGeometry x="529" y="370" width="179" height="60" as="geometry" />
        </mxCell>
        <mxCell id="3pkGQoeZ3oAOKSy_i_JQ-24" value="Action Item&#xa;(FABActionItem)" style="rounded=1;fontFamily=&quot;Segoe UI&quot;,&quot;Helvetica Neue&quot;,Helvetica,Arial,sans-serif;strokeWidth=3;arcSize=50;fontColor=#fff;fillColor=#FF7200;strokeColor=none;" vertex="1" parent="1">
          <mxGeometry x="529" y="460" width="179" height="60" as="geometry" />
        </mxCell>
        <mxCell id="3pkGQoeZ3oAOKSy_i_JQ-31" value="" style="group;" vertex="1" connectable="0" parent="1">
          <mxGeometry x="327" y="90" width="179" height="60" as="geometry" />
        </mxCell>
        <mxCell id="3pkGQoeZ3oAOKSy_i_JQ-15" value="(ASPxFloatingActionButton)" style="rounded=1;fontFamily=&quot;Segoe UI&quot;,&quot;Helvetica Neue&quot;,Helvetica,Arial,sans-serif;;strokeWidth=3;arcSize=50;imageHeight=24;fontColor=#fff;fillColor=#FF7200;strokeColor=none;verticalAlign=bottom;spacingBottom=12;" vertex="1" parent="3pkGQoeZ3oAOKSy_i_JQ-31">
          <mxGeometry width="179" height="60" as="geometry" />
        </mxCell>
        <mxCell id="3pkGQoeZ3oAOKSy_i_JQ-30" value="Floating Action Button" style="text;strokeColor=none;fillColor=none;align=center;verticalAlign=middle;rounded=0;fontColor=#fff;fontFamily=&quot;Segoe UI&quot;,&quot;Helvetica Neue&quot;,Helvetica,Arial,sans-serif;fontSize=15;fontStyle=0;" vertex="1" parent="3pkGQoeZ3oAOKSy_i_JQ-31">
          <mxGeometry x="18" y="10" width="143" height="20" as="geometry" />
        </mxCell>
      </root>
    </mxGraphModel>
  </diagram>
</mxfile>
